<svg id="Layer_2" data-name="Layer 2" xmlns="http://www.w3.org/2000/svg" viewBox="0 0 235.12 62.42"><defs><style>.cls-1{fill:#2f4a4e;}.cls-2{fill:#506a6b;}</style></defs><title>eyoc_2020typo</title><path class="cls-1" d="M311.46,506h21.7v6.26H318.59v7.31h13.23v6.25H318.59v7.61H333.4v6.25H311.46Z" transform="translate(-311.46 -505.33)"/><path class="cls-1" d="M347.5,527.27l-12-21.27h8.47l6.74,12.37.77,3.6h.24l.81-3.7L359,506h7.65l-12,21.22v12.46H347.5Z" transform="translate(-311.46 -505.33)"/><path class="cls-1" d="M366,522.84a23.89,23.89,0,0,1,1.06-7.41,15.08,15.08,0,0,1,3-5.51,13,13,0,0,1,4.88-3.41,17.15,17.15,0,0,1,6.55-1.18,16.81,16.81,0,0,1,6.8,1.27,13,13,0,0,1,4.86,3.59,15.5,15.5,0,0,1,2.94,5.53,24.17,24.17,0,0,1,1,7.12,23.57,23.57,0,0,1-1.09,7.41,15.16,15.16,0,0,1-3.1,5.51,13.2,13.2,0,0,1-4.91,3.41,18.67,18.67,0,0,1-13.3-.09,13.27,13.27,0,0,1-4.86-3.58,15.19,15.19,0,0,1-2.91-5.54A24.87,24.87,0,0,1,366,522.84Zm7.55,0a20.22,20.22,0,0,0,.48,4.57,10.94,10.94,0,0,0,1.45,3.56,6.59,6.59,0,0,0,2.47,2.31,7.41,7.41,0,0,0,3.59.82,7.24,7.24,0,0,0,5.92-2.6q2.12-2.6,2.11-8.66a21.74,21.74,0,0,0-.43-4.47,10.42,10.42,0,0,0-1.42-3.59,7.14,7.14,0,0,0-2.5-2.36,7.5,7.5,0,0,0-3.68-.84,7,7,0,0,0-5.87,2.7C374.24,516.07,373.53,518.93,373.53,522.84Z" transform="translate(-311.46 -505.33)"/><path class="cls-1" d="M426.89,538.24a11,11,0,0,1-4.19,1.61,27.63,27.63,0,0,1-5.34.5,19.88,19.88,0,0,1-6.18-1,14.09,14.09,0,0,1-5.25-3.08,15,15,0,0,1-3.63-5.43,21.4,21.4,0,0,1-1.35-8,19.79,19.79,0,0,1,1.54-8.25,15.32,15.32,0,0,1,3.95-5.39,15.12,15.12,0,0,1,5.34-3,19.33,19.33,0,0,1,5.77-.91,31.15,31.15,0,0,1,5.27.38,19.9,19.9,0,0,1,3.54.92l-1.4,6a11.13,11.13,0,0,0-2.81-.77,28.5,28.5,0,0,0-4.07-.24,10.65,10.65,0,0,0-3.92.7,8,8,0,0,0-3,2.09,9.73,9.73,0,0,0-1.94,3.51,15.79,15.79,0,0,0-.7,5,16,16,0,0,0,.62,4.57A10,10,0,0,0,411,531a8.13,8.13,0,0,0,3.18,2.31,11.25,11.25,0,0,0,4.47.82,15.53,15.53,0,0,0,4-.43,13.32,13.32,0,0,0,2.86-1.11Z" transform="translate(-311.46 -505.33)"/><path class="cls-1" d="M457.74,513.86a13.79,13.79,0,0,1-1,5A30.4,30.4,0,0,1,454.1,524a60.14,60.14,0,0,1-3.61,5.08q-2,2.53-4,4.87l-2.61,2.09v.19l3.47-.52h11.23v3.95H437.31V538c.77-.74,1.68-1.66,2.75-2.73s2.19-2.28,3.36-3.58,2.31-2.68,3.44-4.13a42.69,42.69,0,0,0,3.05-4.43,29.68,29.68,0,0,0,2.17-4.44,11.48,11.48,0,0,0,.84-4.12,5.33,5.33,0,0,0-1.39-3.78,5.52,5.52,0,0,0-4.26-1.5,9.58,9.58,0,0,0-3.87.8,12.05,12.05,0,0,0-3.21,1.95l-2-3.23a15.85,15.85,0,0,1,4.48-2.53,15.52,15.52,0,0,1,5.54-.94,9.82,9.82,0,0,1,7,2.34A8.06,8.06,0,0,1,457.74,513.86Z" transform="translate(-311.46 -505.33)"/><path class="cls-1" d="M464.92,522.82q0-8.43,3.08-13a10.31,10.31,0,0,1,9.11-4.53q6.36,0,9.3,4.48t2.93,13q0,8.38-3.13,12.93a10.4,10.4,0,0,1-9.15,4.56,11.17,11.17,0,0,1-5.47-1.26,10.19,10.19,0,0,1-3.76-3.54,16.89,16.89,0,0,1-2.19-5.51A33.06,33.06,0,0,1,464.92,522.82Zm4.81,0a33,33,0,0,0,.43,5.46,16.68,16.68,0,0,0,1.31,4.34,7.69,7.69,0,0,0,2.28,2.89,5.53,5.53,0,0,0,3.36,1,5.94,5.94,0,0,0,5.63-3.4q1.78-3.39,1.79-10.33a35.49,35.49,0,0,0-.39-5.46,15.2,15.2,0,0,0-1.26-4.34,7.45,7.45,0,0,0-2.3-2.89,5.69,5.69,0,0,0-3.47-1,5.9,5.9,0,0,0-5.62,3.44Q469.74,516,469.73,522.82Z" transform="translate(-311.46 -505.33)"/><path class="cls-1" d="M515,513.86a13.61,13.61,0,0,1-1,5,30.33,30.33,0,0,1-2.62,5.13,58.1,58.1,0,0,1-3.62,5.08q-2,2.53-4,4.87l-2.6,2.09v.19l3.47-.52h11.22v3.95H494.54V538c.77-.74,1.69-1.66,2.76-2.73s2.19-2.28,3.35-3.58,2.32-2.68,3.45-4.13a42.58,42.58,0,0,0,3-4.43,29.77,29.77,0,0,0,2.18-4.44,11.48,11.48,0,0,0,.84-4.12,5.37,5.37,0,0,0-1.39-3.78,5.55,5.55,0,0,0-4.26-1.5,9.67,9.67,0,0,0-3.88.8,12.38,12.38,0,0,0-3.21,1.95l-2-3.23a16,16,0,0,1,4.48-2.53,15.6,15.6,0,0,1,5.54-.94,9.84,9.84,0,0,1,7,2.34A8.06,8.06,0,0,1,515,513.86Z" transform="translate(-311.46 -505.33)"/><path class="cls-1" d="M522.15,522.82q0-8.43,3.09-13a10.29,10.29,0,0,1,9.1-4.53q6.36,0,9.3,4.48t2.94,13q0,8.38-3.13,12.93a10.41,10.41,0,0,1-9.16,4.56,11.15,11.15,0,0,1-5.46-1.26,10.19,10.19,0,0,1-3.76-3.54,16.89,16.89,0,0,1-2.19-5.51A32.43,32.43,0,0,1,522.15,522.82Zm4.82,0a32,32,0,0,0,.43,5.46,16.3,16.3,0,0,0,1.31,4.34,7.5,7.5,0,0,0,2.28,2.89,5.47,5.47,0,0,0,3.35,1,5.94,5.94,0,0,0,5.64-3.4q1.78-3.39,1.78-10.33a36.85,36.85,0,0,0-.38-5.46,15.2,15.2,0,0,0-1.26-4.34,7.38,7.38,0,0,0-2.31-2.89,5.67,5.67,0,0,0-3.47-1,5.88,5.88,0,0,0-5.61,3.44Q527,516,527,522.82Z" transform="translate(-311.46 -505.33)"/><path class="cls-2" d="M320.19,559a1.78,1.78,0,0,0-.59-1.42,5.44,5.44,0,0,0-1.5-.91c-.6-.25-1.25-.5-1.94-.73a9.19,9.19,0,0,1-1.94-.87,4.77,4.77,0,0,1-1.5-1.36,4.12,4.12,0,0,1,.79-5.2,5.92,5.92,0,0,1,3.93-1.15,15.17,15.17,0,0,1,2.71.22,7.27,7.27,0,0,1,1.94.58l-.68,1.84a7.42,7.42,0,0,0-1.66-.48,12.09,12.09,0,0,0-2.42-.22,3.43,3.43,0,0,0-2.25.63,1.89,1.89,0,0,0-.75,1.47,1.74,1.74,0,0,0,.6,1.37,5.66,5.66,0,0,0,1.5.93c.6.27,1.24.53,1.93.78a10.21,10.21,0,0,1,1.94.93,5,5,0,0,1,1.5,1.35,3.36,3.36,0,0,1,.6,2.06,4.21,4.21,0,0,1-.4,1.87,4,4,0,0,1-1.14,1.44,5.31,5.31,0,0,1-1.81.91,8.45,8.45,0,0,1-2.4.32,14.71,14.71,0,0,1-3.06-.27,9,9,0,0,1-1.88-.59l.73-1.91a9.06,9.06,0,0,0,1.66.55,9.9,9.9,0,0,0,2.46.28,6.48,6.48,0,0,0,1.43-.14,3.89,3.89,0,0,0,1.16-.44,2,2,0,0,0,1-1.84Z" transform="translate(-311.46 -505.33)"/><path class="cls-2" d="M325.26,552.27a11.42,11.42,0,0,1,4.92-.95,5.41,5.41,0,0,1,2.12.35,3,3,0,0,1,1.25.87,2.69,2.69,0,0,1,.58,1.17,5.81,5.81,0,0,1,.15,1.29c0,.81,0,1.63-.09,2.44s-.09,1.7-.09,2.66c0,.55,0,1.09.08,1.61a8.57,8.57,0,0,0,.25,1.45H333l-.56-1.76h-.22a5.78,5.78,0,0,1-.59.67,3.74,3.74,0,0,1-.84.6,5.14,5.14,0,0,1-1.11.45,5.71,5.71,0,0,1-1.45.17,4.7,4.7,0,0,1-1.49-.23,3.46,3.46,0,0,1-1.18-.65,3,3,0,0,1-.79-1,3.11,3.11,0,0,1-.28-1.35,3.3,3.3,0,0,1,.43-1.72,3.61,3.61,0,0,1,1.11-1.19,4.72,4.72,0,0,1,1.55-.68,6.9,6.9,0,0,1,1.73-.22c.46,0,.85,0,1.16,0l.8,0,.54.07.39.06c0-.23,0-.42.07-.58s0-.36,0-.62a3.4,3.4,0,0,0-.13-1,1.42,1.42,0,0,0-.43-.67,1.9,1.9,0,0,0-.81-.37,6.09,6.09,0,0,0-1.23-.11,8.18,8.18,0,0,0-.93.07,9,9,0,0,0-1,.19c-.34.08-.67.18-1,.29a9.76,9.76,0,0,0-.9.38Zm6.9,5.6a2.66,2.66,0,0,1-.37-.07,3,3,0,0,0-.49-.06l-.7,0-1,0a4.05,4.05,0,0,0-2.15.49,1.77,1.77,0,0,0-.8,1.65,1.51,1.51,0,0,0,.62,1.32,2.71,2.71,0,0,0,1.61.44,3.87,3.87,0,0,0,1.28-.19,3.57,3.57,0,0,0,1-.46,2.62,2.62,0,0,0,.66-.62,2.85,2.85,0,0,0,.38-.67Z" transform="translate(-311.46 -505.33)"/><path class="cls-2" d="M340.51,560.05a1.88,1.88,0,0,0,.35,1.28,1.16,1.16,0,0,0,.91.38,4.94,4.94,0,0,0,.68-.05,5.74,5.74,0,0,0,.8-.18l.26,1.5a3.69,3.69,0,0,1-.53.17l-.64.14a5,5,0,0,1-.66.1l-.59,0a2.83,2.83,0,0,1-1.9-.6,2.55,2.55,0,0,1-.7-2V547.69h2Z" transform="translate(-311.46 -505.33)"/><path class="cls-2" d="M355.52,563.18a4.15,4.15,0,0,1-1.33,3.38,5.92,5.92,0,0,1-3.91,1.12,13.25,13.25,0,0,1-2.43-.18,7.21,7.21,0,0,1-1.58-.48l.48-1.83q.28.13.66.27a8.13,8.13,0,0,0,.79.26,8,8,0,0,0,.85.17,4.7,4.7,0,0,0,.82.07,6.82,6.82,0,0,0,1.78-.19,2.54,2.54,0,0,0,1.12-.58,2.06,2.06,0,0,0,.57-1,6.23,6.23,0,0,0,.16-1.47v-.82h-.25a2.45,2.45,0,0,1-1.23.93,5.79,5.79,0,0,1-2.13.35,4.63,4.63,0,0,1-3.69-1.36,6.56,6.56,0,0,1-1.19-4.37,6.34,6.34,0,0,1,1.54-4.58,6.05,6.05,0,0,1,4.59-1.61,15.1,15.1,0,0,1,2.5.17,12.32,12.32,0,0,1,1.88.46Zm-5.16-1.74a3,3,0,0,0,2.08-.68,3.48,3.48,0,0,0,1-1.79v-5.68a6.58,6.58,0,0,0-1.15-.25,11.1,11.1,0,0,0-1.48-.08,3.36,3.36,0,0,0-2.67,1.09,4.92,4.92,0,0,0-1,3.33,5.36,5.36,0,0,0,.71,3A2.72,2.72,0,0,0,350.36,561.44Z" transform="translate(-311.46 -505.33)"/><path class="cls-2" d="M358.83,557.34a8.22,8.22,0,0,1,.37-2.57,5.13,5.13,0,0,1,1.11-1.92,4.72,4.72,0,0,1,1.77-1.22,6.41,6.41,0,0,1,2.39-.42,6.11,6.11,0,0,1,2.47.47A4.79,4.79,0,0,1,368.7,553a5.35,5.35,0,0,1,1.05,1.94,8.16,8.16,0,0,1,.34,2.43,8,8,0,0,1-.38,2.54,5.46,5.46,0,0,1-1.11,1.91,4.48,4.48,0,0,1-1.76,1.21,6.34,6.34,0,0,1-2.37.42A6.18,6.18,0,0,1,362,563a4.65,4.65,0,0,1-1.75-1.28,5.21,5.21,0,0,1-1-1.93A8.07,8.07,0,0,1,358.83,557.34Zm2.2,0a7.14,7.14,0,0,0,.19,1.6,4.1,4.1,0,0,0,.6,1.4,3.14,3.14,0,0,0,1.06,1,3.2,3.2,0,0,0,1.61.38q3.4,0,3.4-4.37a6.9,6.9,0,0,0-.19-1.65,4.3,4.3,0,0,0-.58-1.4,3,3,0,0,0-1.06-1,3.54,3.54,0,0,0-4.15.71A5.29,5.29,0,0,0,361,557.34Zm3.64-10.09H367v.5l-2.47,2.8h-1.23Z" transform="translate(-311.46 -505.33)"/><path class="cls-2" d="M371.94,551.54h2v-2.33l2-.53v2.86h3.48v1.72h-3.48v5.91a3.88,3.88,0,0,0,.36,2,1.3,1.3,0,0,0,1.21.58,3.9,3.9,0,0,0,1-.13c.3-.08.64-.18,1-.32l.47,1.44a9.91,9.91,0,0,1-1.51.51,6.83,6.83,0,0,1-1.73.21,2.66,2.66,0,0,1-2.2-.83,4.55,4.55,0,0,1-.64-2.74v-6.59h-2Z" transform="translate(-311.46 -505.33)"/><path class="cls-2" d="M382.15,552.27a11.37,11.37,0,0,1,4.91-.95,5.5,5.5,0,0,1,2.13.35,3.11,3.11,0,0,1,1.25.87,2.8,2.8,0,0,1,.58,1.17,6.44,6.44,0,0,1,.14,1.29c0,.81,0,1.63-.09,2.44s-.08,1.7-.08,2.66c0,.55,0,1.09.07,1.61a8.53,8.53,0,0,0,.26,1.45h-1.48l-.55-1.76h-.22a5.09,5.09,0,0,1-.6.67,3.47,3.47,0,0,1-.83.6,5.45,5.45,0,0,1-1.12.45,5.69,5.69,0,0,1-1.44.17,4.81,4.81,0,0,1-1.5-.23,3.46,3.46,0,0,1-1.18-.65,3,3,0,0,1-.78-1,3.11,3.11,0,0,1-.29-1.35,3.4,3.4,0,0,1,.43-1.72,3.83,3.83,0,0,1,1.11-1.19,4.77,4.77,0,0,1,1.56-.68,6.9,6.9,0,0,1,1.73-.22c.45,0,.84,0,1.16,0l.79,0,.54.07.4.06c0-.23.05-.42.06-.58a5.45,5.45,0,0,0,0-.62,3.4,3.4,0,0,0-.13-1,1.42,1.42,0,0,0-.43-.67,1.86,1.86,0,0,0-.8-.37,6.19,6.19,0,0,0-1.24-.11,8,8,0,0,0-.92.07,9.13,9.13,0,0,0-1,.19c-.33.08-.67.18-1,.29a8.5,8.5,0,0,0-.89.38Zm6.9,5.6a3.1,3.1,0,0,1-.38-.07,2.84,2.84,0,0,0-.49-.06l-.7,0-1,0a4.09,4.09,0,0,0-2.16.49,1.77,1.77,0,0,0-.79,1.65,1.49,1.49,0,0,0,.62,1.32,2.67,2.67,0,0,0,1.61.44,3.91,3.91,0,0,0,1.28-.19,3.57,3.57,0,0,0,1-.46,2.42,2.42,0,0,0,.65-.62,2.91,2.91,0,0,0,.39-.67Z" transform="translate(-311.46 -505.33)"/><path class="cls-2" d="M401.15,553.46l-.73-.17a3.23,3.23,0,0,0-.66-.07,2.44,2.44,0,0,0-2.63,2.08v7.82h-2V551.54h1.41l.39,1.55h.2a4.21,4.21,0,0,1,1.18-1.34,2.9,2.9,0,0,1,1.69-.47,7.25,7.25,0,0,1,.73.05,5.2,5.2,0,0,1,.83.19Z" transform="translate(-311.46 -505.33)"/><path class="cls-2" d="M404,551.54h2v12a5.18,5.18,0,0,1-.81,3.19,3.07,3.07,0,0,1-2.59,1h-.38a2.42,2.42,0,0,1-.45,0V566a2.54,2.54,0,0,0,1.15-.17,1.47,1.47,0,0,0,.67-.61,2.8,2.8,0,0,0,.3-1,12,12,0,0,0,.08-1.44Zm-.46-2.75a1.31,1.31,0,0,1,.39-.92,1.39,1.39,0,0,1,1-.4,1.46,1.46,0,0,1,1.06.4,1.27,1.27,0,0,1,.42.92,1.18,1.18,0,0,1-.42.89,1.49,1.49,0,0,1-1.06.39,1.43,1.43,0,0,1-1-.39A1.21,1.21,0,0,1,403.55,548.79Z" transform="translate(-311.46 -505.33)"/><path class="cls-2" d="M410.23,552.27a11.37,11.37,0,0,1,4.91-.95,5.5,5.5,0,0,1,2.13.35,3.07,3.07,0,0,1,1.24.87,2.71,2.71,0,0,1,.59,1.17,6.44,6.44,0,0,1,.14,1.29c0,.81,0,1.63-.09,2.44s-.09,1.7-.09,2.66c0,.55,0,1.09.08,1.61a9.7,9.7,0,0,0,.25,1.45h-1.47l-.55-1.76h-.22a5.93,5.93,0,0,1-.6.67,3.34,3.34,0,0,1-.84.6,5.14,5.14,0,0,1-1.11.45,5.69,5.69,0,0,1-1.44.17,4.72,4.72,0,0,1-1.5-.23,3.46,3.46,0,0,1-1.18-.65,3,3,0,0,1-.78-1,3.11,3.11,0,0,1-.29-1.35,3.3,3.3,0,0,1,.43-1.72,3.83,3.83,0,0,1,1.11-1.19,4.77,4.77,0,0,1,1.56-.68,6.84,6.84,0,0,1,1.73-.22c.45,0,.84,0,1.15,0l.8,0,.54.07.39.06c0-.23.06-.42.07-.58a5.45,5.45,0,0,0,0-.62,3.4,3.4,0,0,0-.13-1,1.42,1.42,0,0,0-.43-.67,1.92,1.92,0,0,0-.8-.37,6.19,6.19,0,0,0-1.24-.11,7.85,7.85,0,0,0-.92.07,9.13,9.13,0,0,0-1,.19c-.34.08-.67.18-1,.29a8.5,8.5,0,0,0-.89.38Zm6.89,5.6a3,3,0,0,1-.37-.07,2.84,2.84,0,0,0-.49-.06l-.7,0-1,0a4.07,4.07,0,0,0-2.16.49,1.77,1.77,0,0,0-.8,1.65,1.5,1.5,0,0,0,.63,1.32,2.66,2.66,0,0,0,1.6.44,3.83,3.83,0,0,0,1.28-.19,3.49,3.49,0,0,0,1-.46,2.57,2.57,0,0,0,.65-.62,2.54,2.54,0,0,0,.38-.67Zm-2.82-10.62h2.3v.5l-2.47,2.8h-1.24Z" transform="translate(-311.46 -505.33)"/><path class="cls-2" d="M431.41,563.12v-6.4a5.13,5.13,0,0,0-.6-2.77,2.31,2.31,0,0,0-2.12-.93,3.53,3.53,0,0,0-2.23.69,3.68,3.68,0,0,0-1.25,1.78v7.63h-2V551.54h1.42l.39,1.55h.2a5.07,5.07,0,0,1,4.12-1.88,6.43,6.43,0,0,1,1.79.23,2.83,2.83,0,0,1,1.29.82,3.92,3.92,0,0,1,.78,1.57,10,10,0,0,1,.26,2.47v6.82Z" transform="translate(-311.46 -505.33)"/><path class="cls-2" d="M454.65,556.75h-6.17v6.37h-3.26V547.69h3.26v6.19h6.17v-6.19h3.27v15.43h-3.27Z" transform="translate(-311.46 -505.33)"/><path class="cls-2" d="M469.88,547.69H473v9.89a7,7,0,0,1-.43,2.6,4.69,4.69,0,0,1-1.21,1.81,5.09,5.09,0,0,1-1.88,1,7.84,7.84,0,0,1-2.39.34,7.22,7.22,0,0,1-4.74-1.36,5,5,0,0,1-1.63-4.06V547.69H464v9.67a3.18,3.18,0,0,0,.78,2.46,3.32,3.32,0,0,0,2.29.69,2.87,2.87,0,0,0,2.16-.73,3.45,3.45,0,0,0,.7-2.42Z" transform="translate(-311.46 -505.33)"/><path class="cls-2" d="M479.91,555.07l-1.32-2.31h-.11l.35,2.33v8h-3.08V547.58h2.35l6.37,8.22,1.26,2.25h.13l-.35-2.27v-8.09h3.08v15.53h-2.35Z" transform="translate(-311.46 -505.33)"/><path class="cls-2" d="M497.32,555h6.3v6.92a5.15,5.15,0,0,1-1.11.68,8.42,8.42,0,0,1-1.28.46,8.75,8.75,0,0,1-1.37.28,13.26,13.26,0,0,1-1.39.08,9.24,9.24,0,0,1-3-.46,6.37,6.37,0,0,1-2.4-1.44,6.88,6.88,0,0,1-1.61-2.5,10.11,10.11,0,0,1-.58-3.62,8.84,8.84,0,0,1,.7-3.71,7,7,0,0,1,4.38-3.88,9.32,9.32,0,0,1,2.79-.43A14.1,14.1,0,0,1,503,548l-.68,2.71a7.85,7.85,0,0,0-1.35-.33,10.73,10.73,0,0,0-1.87-.14,6,6,0,0,0-1.9.28,3.82,3.82,0,0,0-1.5.89,4.23,4.23,0,0,0-1,1.61,7.33,7.33,0,0,0-.35,2.4,7,7,0,0,0,.35,2.34,4.58,4.58,0,0,0,1,1.6,3.57,3.57,0,0,0,1.4.91,4.93,4.93,0,0,0,1.67.29,6.3,6.3,0,0,0,1.21-.13,3,3,0,0,0,1-.42v-2.67l-3.66-.35Z" transform="translate(-311.46 -505.33)"/><path class="cls-2" d="M514.31,559.83h-5.2l-1.25,3.29h-3.27l6-15.54H513l6.06,15.54h-3.46ZM510,557.25h3.52L512.35,554l-.53-2.45h-.11l-.53,2.47Z" transform="translate(-311.46 -505.33)"/><path class="cls-2" d="M520.53,547.84c.35-.06.74-.11,1.16-.16s.84-.1,1.26-.12.84-.06,1.25-.07.77,0,1.11,0a12.53,12.53,0,0,1,2.3.2,6.56,6.56,0,0,1,2,.68,3.67,3.67,0,0,1,2,3.46,5,5,0,0,1-.94,3.12,4.65,4.65,0,0,1-2.59,1.66l1.17.69,3.86,5.84h-3.8l-3.83-6-1.72-.26v6.24h-3.26Zm5,2.49h-1a4.54,4.54,0,0,0-.76.08v4.25h1.39a3.94,3.94,0,0,0,2.19-.52,2,2,0,0,0,.81-1.83,1.72,1.72,0,0,0-.69-1.48A3.22,3.22,0,0,0,525.53,550.33Z" transform="translate(-311.46 -505.33)"/><path class="cls-2" d="M537.5,557.43,532,547.69h3.88l3.09,5.66.35,1.65h.11l.37-1.69,3-5.62h3.5l-5.51,9.72v5.71H537.5Z" transform="translate(-311.46 -505.33)"/></svg>