<svg xmlns="http://www.w3.org/2000/svg" viewBox="0 0 440.14 317.85"><defs><style>.cls-1{fill:#94d6da;}.cls-2{fill:#506a6b;}.cls-3{fill:#2f4a4e;}.cls-4{fill:#3d813f;}.cls-5{fill:#6aa744;}.cls-6{fill:#a5cf4c;}.cls-7{fill:#ed1c24;}</style></defs><title>eyoc_2020_logo</title><g id="Layer_3" data-name="Layer 3"><path class="cls-1" d="M470.18,421.34s53.54-34.56,67.77-30.5c.61.18,3.46,2.83,12.87,8.36,4,2.35,20.78,2.26,20.78,2.26l86.29,45,49.63,12.9A157.87,157.87,0,1,0,416.09,421.4C417.47,427,470.18,421.34,470.18,421.34Z" transform="translate(-375.43 -225.1)"/></g><g id="Layer_7" data-name="Layer 7"><path class="cls-2" d="M519.56,283.87v34.3h35.32v-34.3Zm26.38,9.65H528.49l0-4.84H546Z" transform="translate(-375.43 -225.1)"/><polygon class="cls-2" points="289.62 125.58 289.42 114.25 269.22 112.17 269.22 101.09 253.66 101.09 253.66 122.73 258.22 122.73 289.62 125.58"/><polygon class="cls-3" points="271.28 101.42 251.78 101.42 257.47 96.08 261.53 88.04 265.43 96.09 271.28 101.42"/><polygon class="cls-3" points="161.86 41.59 140.28 60.1 183.45 60.13 161.86 41.59"/></g><g id="Layer_5" data-name="Layer 5"><path class="cls-4" d="M579,398.29s30.74-36.78,32.3-37.64,17.51-14,17.51-14l6.49-.74s8.39-.51,9.32-.51,20.48,5,20.48,5l38.59,12.22s19.62,12,20.55,12.88S750.85,390,750.85,390l33.54,34.55L815.57,451l-58.75,3.23-59.57,5.08Z" transform="translate(-375.43 -225.1)"/></g><g id="Layer_4" data-name="Layer 4"><path class="cls-5" d="M375.43,419.37l53.78-36.77s45.43-49.83,47.87-50.81,32.73-22.47,32.73-22.47l20-10.75s15.63,18.08,17.1,18.08,11.23.49,11.23.49l15.15,15.63s34.19,26.38,35.66,27.35S655.38,385,655.38,385l54.71,11.72,92.65,66.09L714,446.19s-63.86-4.73-63.64-5.64c.49-1.95-81.1-46-81.1-46L528.62,383l-90.8,45.8-20.58-3.27Z" transform="translate(-375.43 -225.1)"/></g><g id="Layer_2" data-name="Layer 2"><path class="cls-6" d="M658,432.94,571.7,388s-16.79.09-20.78-2.25c-9.41-5.54-12.27-8.19-12.88-8.36-14.23-4.07-67.76,30.49-67.76,30.49l-53,17.66s1.49,5.35,2.34,8A158,158,0,0,0,569.89,543C635.3,543,690,502.86,714,446.19ZM537.21,404.81a8.19,8.19,0,1,1-11,3.7A8.17,8.17,0,0,1,537.21,404.81ZM514.92,400c8-6,14.64.06,13,3.33-2.63,5.14-10.49,7-14.34,5.9-3.61-1-9.59-3.82-9.94-9.19C503.41,397.16,506.9,406,514.92,400Zm-23.57,26.46s10.74-9.66,13.14-10.45,16.61,2.24,19.72,3.07a15,15,0,0,1,7.3,4.87c2,2.25,7.64,19.21,7.64,19.21l9.23-4.55s3.22-1.48,4.6,1.42a3.41,3.41,0,0,1-.44,3.94s-15.52,7.25-17.33,6.6-8.09-15.82-8.09-15.82l-5.6,7.92-12.34-4.54,7.89-12.91-11.48-2.39-9.32,7.77a3.52,3.52,0,0,1-3.79-.17C490.78,429,491.35,426.46,491.35,426.46Zm-4.65,75.28a124.65,124.65,0,0,1-21.46-7.57l2.09-5.93a150.39,150.39,0,0,0,21.46,7.56Zm12.61,1.56-.57-6.27a177.16,177.16,0,0,0,22.66-2l.57,6.27A128.93,128.93,0,0,1,499.31,503.3Zm26.74-14.64a5.63,5.63,0,0,1-4.24-3.47l3-20.31L512.33,452.4s-8,9.11-10,9.58-24.65-3.48-24.65-3.48-3.57-1.08-3.27-4.6c.24-2.78,4.68-3.51,4.68-3.51l19.35,3,9.06-12.87,12.35,4.39s14,14.62,13.76,17.81-3.19,23.73-3.19,23.73A4.17,4.17,0,0,1,526.05,488.66Zm8.14,10.18-1.47-6.12,22.12-5.32,1.47,6.12Zm33.78-8.4-1.67-6.07,22-6,1.67,6.07Zm32.91-8.83-1.29-6.16a204.81,204.81,0,0,1,22.28-4.66l.46,6.28A161.21,161.21,0,0,0,600.88,481.61Zm58.92,6.24H627.27V455.32H659.8Zm4.49-10.16.88-6.11a88.77,88.77,0,0,1,20,10.22l-3.76,4.87A52.3,52.3,0,0,0,664.29,477.69Z" transform="translate(-375.43 -225.1)"/></g><g id="Layer_1" data-name="Layer 1"><polygon class="cls-2" points="52.81 159.74 53.05 120.85 72.14 120.61 88.33 112.53 87.38 155.15 52.81 159.74"/><polygon class="cls-3" points="141.74 103.19 141.43 122.08 127.06 131.6 125.36 143.27 87.49 155.05 88.33 112.53 119.24 104.73 141.74 103.19"/><polygon class="cls-3" points="220.58 118.66 195.7 107.64 196.3 126.72 221.17 125.69 220.58 118.66"/><polygon class="cls-2" points="141.74 103.19 195.7 107.64 196.42 126.72 141.43 122.08 141.74 103.19"/></g><g id="Layer_6" data-name="Layer 6"><polygon class="cls-7" points="255.36 233.43 280.87 259.54 255.36 259.54 255.36 233.43"/></g></svg>