<svg id="Layer_1" data-name="Layer 1" xmlns="http://www.w3.org/2000/svg" viewBox="0 0 640 640"><defs><style>.cls-1{fill:#fff;}.cls-2{fill:#a4ce4c;}.cls-3{fill:#6aa644;}.cls-4{fill:#3d803f;}</style></defs><title>kor</title><path class="cls-1" d="M1000,795a295,295,0,1,1,208.6-86.4A293.11,293.11,0,0,1,1000,795Z" transform="translate(-680 -180)"/><path class="cls-2" d="M1000,210a289.09,289.09,0,1,1-112.88,22.79A288.21,288.21,0,0,1,1000,210m0-10c-165.69,0-300,134.31-300,300s134.31,300,300,300,300-134.31,300-300-134.31-300-300-300Z" transform="translate(-680 -180)"/><path class="cls-3" d="M1000,200a300,300,0,1,1,.18,600h-.2a300,300,0,1,1-.2-600h.22m0-10h-.2c-171.21.11-309.91,139-309.8,310.2S828.87,810,1000,810h.2c171.21-.11,309.91-139,309.8-310.2S1171.13,190,1000,190Z" transform="translate(-680 -180)"/><path class="cls-4" d="M1000,190a309,309,0,1,1-120.66,24.36A308.09,308.09,0,0,1,1000,190m0-10c-176.73,0-320,143.27-320,320s143.27,320,320,320,320-143.27,320-320-143.27-320-320-320Z" transform="translate(-680 -180)"/></svg>